<svg height="512pt" viewBox="-37 0 512 512" width="512pt" xmlns="http://www.w3.org/2000/svg"><path d="m384.71875 512c10.621094 0 18.976562-9.1875 17.851562-19.75-9.855468-92.46875-88.117187-164.492188-183.199218-164.492188-95.082032 0-173.339844 72.023438-183.195313 164.492188-1.125 10.5625 7.230469 19.75 17.851563 19.75zm0 0" fill="#a2d5ec"/><path d="m219.371094 327.757812c-42.347656 0-81.351563 14.296876-112.464844 38.3125 31.828125 20.621094 70.628906 32.753907 112.464844 32.753907 41.839844 0 80.640625-12.128907 112.46875-32.753907-31.113282-24.015624-70.117188-38.3125-112.46875-38.3125zm0 0" fill="#8fcae6"/><path d="m144.007812 345.917969.261719 61.289062 35.121094 64.300781c7.992187 14.632813 23.308594 23.722657 39.980469 23.722657 16.675781 0 31.992187-9.089844 39.984375-23.722657l35.121093-64.300781.261719-61.289062zm0 0" fill="#79ace2"/><path d="m281.125 373.699219-46.148438 84.492187c-6.742187 12.34375-24.464843 12.34375-31.207031 0l-46.148437-84.492187zm0 0" fill="#fff"/><path d="m167.890625 392.496094c16.410156 4.117187 33.667969 6.324218 51.480469 6.324218 17.816406 0 35.074218-2.210937 51.484375-6.324218l10.265625-18.796875h-123.5zm0 0" fill="#eeeeed"/><path d="m219.371094 382.15625-57.367188 35.769531c-11.242187 7.011719-25.980468.140625-27.839844-12.980469l-8.265624-58.34375zm0 0" fill="#eb8d9a"/><path d="m219.371094 382.15625 57.371094 35.769531c11.242187 7.011719 25.980468.140625 27.839843-12.980469l8.265625-58.34375zm0 0" fill="#eb8d9a"/><path d="m98.503906 230.320312c0-23.886718-22.050781-43.25-49.25-43.25-27.203125 0-49.253906 19.363282-49.253906 43.25 0 23.890626 22.050781 43.253907 49.253906 43.253907 27.199219 0 49.25-19.363281 49.25-43.253907zm0 0" fill="#ebcebe"/><path d="m438.746094 230.320312c0-23.886718-22.050782-43.25-49.253906-43.25-27.199219 0-49.25 19.363282-49.25 43.25 0 23.890626 22.050781 43.253907 49.25 43.253907 27.203124 0 49.253906-19.363281 49.253906-43.253907zm0 0" fill="#ebcebe"/><path d="m243.851562 397.417969c22.921876-2.640625 44.617188-8.929688 64.378907-18.222657l4.617187-32.59375-93.476562 35.554688zm0 0" fill="#d67c88"/><path d="m194.894531 397.417969c-22.921875-2.640625-44.617187-8.929688-64.378906-18.222657l-4.617187-32.59375 93.472656 35.554688zm0 0" fill="#d67c88"/><path d="m398.179688 219.425781c0-89.875-80.054688-162.734375-178.808594-162.734375-98.75 0-178.804688 72.859375-178.804688 162.734375 0 89.871094 80.054688 162.730469 178.804688 162.730469 98.753906 0 178.808594-72.859375 178.808594-162.730469zm0 0" fill="#f8dccc"/><path d="m154.050781 254.820312c0-16.796874-17.101562-30.417968-38.199219-30.417968-21.09375 0-38.195312 13.621094-38.195312 30.417968 0 16.800782 17.101562 30.417969 38.195312 30.417969 21.097657 0 38.199219-13.617187 38.199219-30.417969zm0 0" fill="#f8b8bd"/><path d="m361.089844 254.820312c0-16.796874-17.101563-30.417968-38.195313-30.417968-21.097656 0-38.199219 13.621094-38.199219 30.417968 0 16.800782 17.101563 30.417969 38.199219 30.417969 21.09375 0 38.195313-13.617187 38.195313-30.417969zm0 0" fill="#f8b8bd"/><path d="m138.113281 231.976562c-4.140625 0-7.5-3.355468-7.5-7.5v-13.488281c0-4.140625 3.359375-7.5 7.5-7.5 4.144531 0 7.5 3.359375 7.5 7.5v13.488281c0 4.140626-3.355469 7.5-7.5 7.5zm0 0" fill="#495059"/><path d="m300.632812 231.976562c-4.144531 0-7.5-3.355468-7.5-7.5v-13.488281c0-4.140625 3.355469-7.5 7.5-7.5 4.140626 0 7.5 3.359375 7.5 7.5v13.488281c0 4.140626-3.359374 7.5-7.5 7.5zm0 0" fill="#495059"/><path d="m406.742188 122.171875c1.324218-3.554687 2.355468-7.257813 3.03125-11.101563 6.730468-38.152343-22.4375-75.183593-65.140626-82.714843-17.863281-3.148438-35.253906-.621094-49.949218 6.15625-16.449219-20.835938-44.039063-34.511719-75.3125-34.511719-31.269532 0-58.859375 13.675781-75.3125 34.511719-14.691406-6.777344-32.082032-9.304688-49.945313-6.15625-42.703125 7.53125-71.871093 44.5625-65.144531 82.714843.679688 3.84375 1.710938 7.546876 3.035156 11.101563-14.589844 6.746094-24.925781 23.476563-24.925781 43.058594 0 25.542969 17.578125 46.253906 39.257813 46.253906 21.460937 0 38.890624-20.292969 39.242187-45.480469 10.398437 2.210938 21.550781 2.511719 32.894531.511719 18.382813-3.238281 34.246094-11.957031 45.828125-23.867187 15.308594 10.085937 34.382813 16.074218 55.070313 16.074218s39.761718-5.992187 55.070312-16.074218c11.582032 11.910156 27.445313 20.628906 45.828125 23.867187 11.34375 2.003906 22.496094 1.699219 32.894531-.511719.351563 25.1875 17.78125 45.480469 39.242188 45.480469 21.683594 0 39.257812-20.710937 39.257812-46.253906.003907-19.585938-10.332031-36.3125-24.921874-43.058594zm0 0" fill="#ad9386"/><path d="m219.371094 274.59375c27.046875 18.089844 52.628906 3.90625 67.390625-12.726562 4.746093-5.347657 1.523437-13.9375-5.582031-14.75-7.710938-.878907-16.355469-3.148438-21.691407-7.363282-11.164062-8.816406-29.5625-10.738281-40.117187-1.15625-10.550782-9.582031-28.953125-7.660156-40.113282 1.15625-5.339843 4.214844-13.980468 6.484375-21.695312 7.363282-7.101562.8125-10.328125 9.402343-5.578125 14.75 14.761719 16.632812 40.34375 30.816406 67.386719 12.726562zm0 0" fill="#ad9386"/><path d="m344.648438 422.988281h-16.324219c-3.613281 0-6.542969 2.929688-6.542969 6.542969v42.453125h29.410156v-42.453125c0-3.613281-2.929687-6.542969-6.542968-6.542969zm0 0" fill="#495059"/><path d="m366.566406 479.480469h-57.136718c-4.144532 0-7.5-3.355469-7.5-7.5 0-4.140625 3.355468-7.5 7.5-7.5h57.136718c4.144532 0 7.5 3.359375 7.5 7.5 0 4.144531-3.355468 7.5-7.5 7.5zm0 0" fill="#79ace2"/></svg>